HIERARCHY
ROOT Hips
{
	OFFSET 0.00000 0.00000 0.00000
	CHANNELS 6 Xposition Yposition Zposition Zrotation Yrotation Xrotation 
	JOINT LHipJoint
	{
		OFFSET 0 0 0
		CHANNELS 3 Zrotation Yrotation Xrotation
		JOINT LeftHip
		{
			OFFSET 1.85742 -1.74412 1.01653
			CHANNELS 3 Zrotation Yrotation Xrotation
			JOINT LeftKnee
			{
				OFFSET 2.54803 -7.00067 0.00000
				CHANNELS 3 Zrotation Yrotation Xrotation
				JOINT LeftAnkle
				{
					OFFSET 2.51202 -6.90173 0.00000
					CHANNELS 3 Zrotation Yrotation Xrotation
					JOINT LeftToe
					{
						OFFSET 0.17547 -0.48209 1.64281
						CHANNELS 3 Zrotation Yrotation Xrotation
						End Site
						{
							OFFSET 0.00000 -0.00000 0.86587
						}
					}
				}
			}
		}
	}
	JOINT RHipJoint
	{
		OFFSET 0 0 0
		CHANNELS 3 Zrotation Yrotation Xrotation
		JOINT RightHip
		{
			OFFSET -1.95533 -1.74413 1.01654
			CHANNELS 3 Zrotation Yrotation Xrotation
			JOINT RightKnee
			{
				OFFSET -2.49465 -6.85400 0.00000
				CHANNELS 3 Zrotation Yrotation Xrotation
				JOINT RightAnkle
				{
					OFFSET -2.54783 -7.00010 0.00000
					CHANNELS 3 Zrotation Yrotation Xrotation
					JOINT RightToe
					{
						OFFSET -0.18513 -0.50864 1.69288
						CHANNELS 3 Zrotation Yrotation Xrotation
						End Site
						{
							OFFSET -0.00000 -0.00000 0.89242
						}
					}
				}
			}
		}
	}
	JOINT lowerback
	{
		OFFSET 0 0 0
		CHANNELS 3 Zrotation Yrotation Xrotation
		JOINT Chest
		{
			OFFSET 0.02173 2.16290 -0.15998
			CHANNELS 3 Zrotation Yrotation Xrotation
			JOINT Chest2
			{
				OFFSET 0.00940 2.17323 -0.00467
				CHANNELS 3 Zrotation Yrotation Xrotation
				JOINT lowerneck
				{
					OFFSET 0 0 0
					CHANNELS 3 Zrotation Yrotation Xrotation
					JOINT Neck
					{
						OFFSET 0.01475 1.85823 0.31113
						CHANNELS 3 Zrotation Yrotation Xrotation
						JOINT Head
						{
							OFFSET 0.01902 1.88783 -0.37187
							CHANNELS 3 Zrotation Yrotation Xrotation
							End Site
							{
								OFFSET 0.00489 1.93211 -0.16169
							}
						}
					}
				}
				JOINT LeftCollar
				{
					OFFSET 0 0 0
					CHANNELS 3 Zrotation Yrotation Xrotation
					JOINT LeftShoulder
					{
						OFFSET 3.34199 1.32384 -0.07862
CHANNELS 3 Zrotation Xrotation Yrotation
						JOINT LeftElbow
						{
OFFSET 0 -5.279500 0.000000
CHANNELS 3 Zrotation Xrotation Yrotation
							JOINT LeftWrist
							{
OFFSET 0 -3.535040 0.000000
CHANNELS 3 Zrotation Xrotation Yrotation
								JOINT lhand
								{
									OFFSET 0 0 0
CHANNELS 3 Zrotation Xrotation Yrotation
									JOINT LFingers
									{
OFFSET 0 -0.667950 0.000000
CHANNELS 3 Zrotation Xrotation Yrotation
										End Site
										{
OFFSET 0 -0.538520 0.000000
										}
									}
								}
								JOINT LThumb
								{
OFFSET 0 0.000000 0.000000
CHANNELS 3 Zrotation Xrotation Yrotation
									End Site
									{
OFFSET 0 -0.546740 0.546740
									}
								}
							}
						}
					}
				}
				JOINT RightCollar
				{
					OFFSET 0 0 0
					CHANNELS 3 Zrotation Yrotation Xrotation
					JOINT RightShoulder
					{
						OFFSET -3.16149 1.45719 -0.50507
CHANNELS 3 Zrotation Xrotation Yrotation
						JOINT RightElbow
						{
OFFSET 0 -5.250350 0.000000
CHANNELS 3 Zrotation Xrotation Yrotation
							JOINT RightWrist
							{
OFFSET 0 -3.588840 0.000000
CHANNELS 3 Zrotation Xrotation Yrotation
								JOINT rhand
								{
									OFFSET 0 0 0
CHANNELS 3 Zrotation Xrotation Yrotation
									JOINT RFingers
									{
OFFSET 0 -0.779240 0.000000
CHANNELS 3 Zrotation Xrotation Yrotation
										End Site
										{
OFFSET 0 -0.628240 0.000000
										}
									}
								}
								JOINT RThumb
								{
OFFSET 0 0.000000 0.000000
CHANNELS 3 Zrotation Xrotation Yrotation
									End Site
									{
OFFSET 0 -0.637830 0.637830
									}
								}
							}
						}
					}
				}
			}
		}
	}
}
MOTION
Frames: 10
Frame Time: 0.008333333333333333
-4.396500 17.823200 0.981300 -47.224800 86.526000 -40.366700 0.000000 0.000000 0.000000 -13.906600 -32.365900 2.087900 0.617100 5.027500 13.987100 -1.825700 26.729200 -24.927400 1.673200 -8.149300 -23.168600 0.000000 0.000000 0.000000 20.074200 8.915200 0.880100 0.000000 -0.000000 0.000000 1.191100 -18.924000 -8.468600 -0.171600 2.668900 -7.358400 2.087000 0.517800 2.268000 1.392100 0.842900 -2.270200 0.217700 0.394900 -3.599400 -4.114500 -6.606400 -18.101900 4.927900 -9.252700 42.091200 1.375600 -2.968900 19.994400 0.000000 -0.000000 0.000000 2.683300 4.919900 -34.205600 18.119800 -28.310200 4.605900 32.581500 0.525000 -53.808400 0.000000 0.000000 0.000000 -7.125000 0.000000 0.000000 -74.191500 84.313600 68.621500 0.000000 -0.000000 0.000000 -6.701800 4.734700 21.591400 -15.764500 -25.200300 -3.545100 -20.336900 -10.653600 -16.151900 0.000000 0.000000 0.000000 7.125000 0.000000 -0.000000 4.942200 12.862900 3.732200
-4.388986 17.828327 0.988050 -50.448186 86.576554 -43.636099 0.000000 0.000000 0.000000 -13.669100 -31.706990 1.869707 0.604596 4.976923 13.842814 -1.744321 26.152403 -24.325859 1.739840 -8.301504 -23.633867 0.000000 0.000000 0.000000 20.219460 8.738858 0.883278 0.000000 0.000000 0.000000 1.198854 -18.974112 -8.341909 -0.188878 2.798160 -7.717459 2.188891 0.507934 2.498337 1.443818 0.843471 -2.262683 0.211528 0.392334 -3.721662 -4.110592 -6.184324 -17.835086 5.435014 -8.832188 40.575764 1.665401 -2.817813 18.954863 0.000000 0.000000 0.000000 2.581528 5.124338 -34.139531 18.349405 -28.602108 4.715403 33.237429 0.545656 -53.324109 0.000000 0.000000 0.000000 -7.125000 0.000000 0.000000 -70.163888 84.590589 64.979271 0.000000 0.000000 0.000000 -6.758402 4.792385 21.551304 -15.809168 -25.261180 -3.564098 -20.312862 -10.655984 -16.621163 0.000000 0.000000 0.000000 7.125000 0.000000 0.000000 4.982733 12.373288 3.814108
-4.380047 17.832412 0.993816 -52.359472 86.705087 -45.562833 0.000000 0.000000 0.000000 -13.587926 -31.178309 1.770219 0.578837 4.871636 13.542782 -1.704356 25.737434 -23.707578 1.800953 -8.438311 -24.053629 0.000000 0.000000 0.000000 20.216332 8.569899 0.853330 0.000000 0.000000 0.000000 1.207590 -19.031222 -8.200832 -0.207594 2.933556 -8.093855 2.169323 0.509924 2.667729 1.455668 0.851516 -2.272527 0.232558 0.396061 -3.828056 -3.931850 -5.824083 -17.804305 5.476547 -8.371989 39.543701 1.711965 -2.657202 18.273957 0.000000 0.000000 0.000000 2.598797 5.377742 -34.401818 18.606250 -28.926332 4.838964 33.839034 0.155256 -52.570314 0.000000 0.000000 0.000000 -7.125000 0.000000 0.000000 -62.837736 84.795643 58.100470 0.000000 0.000000 0.000000 -6.782900 4.863916 21.422801 -15.851149 -25.318394 -3.582090 -20.304307 -10.483966 -16.879656 0.000000 0.000000 0.000000 7.125000 0.000000 0.000000 5.002342 12.103180 3.857403
-4.369464 17.836139 0.998563 -53.757653 86.894937 -46.920740 0.000000 0.000000 0.000000 -13.590021 -30.761205 1.673768 0.552380 4.760869 13.227738 -1.684264 25.412701 -23.098606 1.841327 -8.527368 -24.327801 0.000000 0.000000 0.000000 20.118829 8.398953 0.775134 0.000000 0.000000 0.000000 1.215818 -19.086955 -8.078711 -0.222599 3.036716 -8.381042 2.089437 0.499834 2.754528 1.439689 0.837325 -2.302247 0.260735 0.390109 -3.908907 -3.587890 -5.429965 -17.849126 5.285142 -7.828230 38.634268 1.639844 -2.462399 17.679344 0.000000 0.000000 0.000000 2.660916 5.614355 -34.710195 18.766341 -29.127297 4.916643 33.929648 -0.133070 -52.281170 0.000000 0.000000 0.000000 -7.125000 0.000000 0.000000 -59.785272 84.789871 55.167466 0.000000 0.000000 0.000000 -6.778719 4.917795 21.312967 -15.854613 -25.323128 -3.583591 -20.381522 -10.302679 -16.959984 0.000000 0.000000 0.000000 7.125000 0.000000 0.000000 4.955506 12.009468 3.830635
-4.357558 17.842329 1.003413 -55.553296 87.067935 -48.649839 0.000000 0.000000 0.000000 -13.513272 -30.099594 1.442722 0.525505 4.645662 12.900629 -1.636071 24.887182 -22.286995 1.874634 -8.599816 -24.551339 0.000000 0.000000 0.000000 20.040999 8.230029 0.696362 0.000000 0.000000 0.000000 1.219512 -19.110487 -7.988299 -0.246068 3.191455 -8.812253 2.032524 0.522818 2.776287 1.420845 0.866741 -2.346571 0.271054 0.405472 -3.967381 -3.268075 -5.043221 -17.978116 5.110524 -7.294696 37.904360 1.583839 -2.259915 17.235478 0.000000 0.000000 0.000000 2.767081 5.869189 -35.221399 18.888177 -29.279408 4.976078 33.867602 -0.278486 -52.295993 0.000000 0.000000 0.000000 -7.125000 0.000000 0.000000 -59.898431 84.764161 55.252038 0.000000 0.000000 0.000000 -6.802099 5.010439 21.334645 -15.861270 -25.332129 -3.586386 -20.678703 -10.426198 -16.886227 0.000000 0.000000 0.000000 7.125000 0.000000 0.000000 4.754061 12.050390 3.669834
-4.345095 17.850426 1.008138 -58.204635 87.170504 -51.263651 0.000000 0.000000 0.000000 -13.333813 -29.206082 1.105904 0.503674 4.549635 12.628400 -1.540212 24.117966 -21.423832 1.954407 -8.770469 -25.080049 0.000000 0.000000 0.000000 20.048639 8.061296 0.673034 0.000000 0.000000 0.000000 1.215665 -19.084369 -8.043067 -0.228423 3.076382 -8.491461 2.079779 0.585164 2.840120 1.388410 0.955417 -2.414774 0.204673 0.446902 -4.072258 -3.131326 -4.715530 -18.147061 5.128904 -6.859832 37.343757 1.633512 -2.084862 16.938236 0.000000 0.000000 0.000000 2.916777 6.078087 -35.765135 18.889438 -29.281020 4.976701 33.916248 -0.285484 -52.325425 0.000000 0.000000 0.000000 -7.125000 0.000000 0.000000 -60.252312 84.792494 55.616306 0.000000 0.000000 0.000000 -6.814357 5.189877 21.402433 -15.876558 -25.353034 -3.592954 -20.767874 -10.615405 -16.784183 0.000000 0.000000 0.000000 7.125000 0.000000 0.000000 4.688964 12.146650 3.609832
-4.332368 17.853000 1.012684 -60.963371 87.208218 -54.037242 0.000000 0.000000 0.000000 -13.176982 -28.494730 0.887438 0.489504 4.486104 12.448526 -1.458334 23.503000 -20.838513 2.026888 -8.921597 -25.550592 0.000000 0.000000 0.000000 20.118881 7.910138 0.714460 0.000000 0.000000 0.000000 1.212603 -19.064320 -8.107558 -0.200428 2.882708 -7.952393 2.208067 0.636152 2.983217 1.330162 1.034526 -2.494778 0.065781 0.479965 -4.232684 -2.862608 -4.385386 -18.405145 4.973085 -6.402442 37.049276 1.593274 -1.893125 16.794451 0.000000 0.000000 0.000000 2.953682 6.081272 -35.781173 18.584381 -28.898746 4.828475 34.034492 0.056023 -52.201964 0.000000 0.000000 0.000000 -7.125000 0.000000 0.000000 -59.001306 84.822236 54.447734 0.000000 0.000000 0.000000 -6.711028 5.329394 21.341755 -15.828022 -25.286858 -3.572182 -20.578767 -10.431469 -16.686646 0.000000 0.000000 0.000000 7.125000 0.000000 0.000000 4.809303 12.272279 3.690491
-4.318442 17.853000 1.017132 -62.845716 87.257477 -55.950126 0.000000 0.000000 0.000000 -13.082088 -27.751817 0.657322 0.481006 4.447439 12.339115 -1.370159 22.842638 -20.257413 2.089613 -9.050180 -25.952630 0.000000 0.000000 0.000000 20.151203 7.782023 0.773515 0.000000 0.000000 0.000000 1.216501 -19.092230 -8.095327 -0.201240 2.888574 -7.968626 2.252794 0.663084 3.096461 1.274845 1.076030 -2.558535 -0.020857 0.496778 -4.360803 -2.483648 -4.023870 -18.627297 4.678262 -5.883049 36.872143 1.488473 -1.675827 16.692106 0.000000 0.000000 0.000000 2.981813 6.074142 -35.708384 18.276708 -28.509910 4.680655 34.046007 0.285997 -52.225708 0.000000 0.000000 0.000000 -7.125000 0.000000 0.000000 -59.268282 84.832301 54.712210 0.000000 0.000000 0.000000 -6.597219 5.391221 21.248575 -15.734844 -25.159750 -3.532470 -20.397713 -10.114132 -16.693301 0.000000 0.000000 0.000000 7.125000 0.000000 0.000000 4.930091 12.287363 3.782362
-4.302807 17.851953 1.020655 -64.637853 87.303664 -57.827508 0.000000 0.000000 0.000000 -13.039919 -27.045020 0.517962 0.474943 4.419771 12.260791 -1.268463 22.149908 -19.823079 2.116458 -9.104516 -26.122832 0.000000 0.000000 0.000000 20.184464 7.638394 0.892437 0.000000 0.000000 0.000000 1.221871 -19.132239 -8.112336 -0.198131 2.866284 -7.906772 2.276007 0.689932 3.188629 1.221010 1.113923 -2.575258 -0.093306 0.513010 -4.428487 -2.211318 -3.711175 -18.793582 4.448296 -5.422481 36.746856 1.422729 -1.486390 16.619541 0.000000 0.000000 0.000000 3.079112 6.126297 -35.844271 18.093332 -28.276511 4.593426 34.145028 0.379974 -52.336586 0.000000 0.000000 0.000000 -7.125000 0.000000 0.000000 -60.562754 84.900552 56.012632 0.000000 0.000000 0.000000 -6.467277 5.384529 21.099687 -15.603635 -24.980275 -3.476912 -20.373840 -9.765028 -16.789568 0.000000 0.000000 0.000000 7.125000 0.000000 0.000000 4.951258 12.189210 3.808815
-4.287638 17.849500 1.021418 -66.406177 87.346285 -59.695493 0.000000 0.000000 0.000000 -13.051024 -26.584085 0.507080 0.470564 4.399457 12.203315 -1.202552 21.698810 -19.566093 2.154139 -9.180041 -26.360086 0.000000 0.000000 0.000000 20.208408 7.490327 1.033165 0.000000 0.000000 0.000000 1.223509 -19.146136 -8.156649 -0.179693 2.730156 -7.528308 2.311360 0.723032 3.269818 1.168088 1.159803 -2.577636 -0.172072 0.533070 -4.474585 -1.937537 -3.423163 -18.919614 4.166484 -4.977475 36.685260 1.333358 -1.307959 16.572615 0.000000 0.000000 0.000000 3.148421 6.172005 -35.986212 17.941592 -28.082353 4.521773 34.516035 0.497293 -52.281351 0.000000 0.000000 0.000000 -7.125000 0.000000 0.000000 -60.257171 85.062767 55.867772 0.000000 0.000000 0.000000 -6.355430 5.331362 21.032974 -15.464799 -24.789587 -3.418480 -20.360770 -9.470987 -16.833743 0.000000 0.000000 0.000000 7.125000 0.000000 0.000000 4.962369 12.144429 3.822060
